<?xml version="1.0" encoding="UTF-8"?> <!-- Generator: Adobe Illustrator 25.2.3, SVG Export Plug-In . SVG Version: 6.00 Build 0) --> <svg xmlns="http://www.w3.org/2000/svg" xmlns:xlink="http://www.w3.org/1999/xlink" version="1.1" id="Layer_1" x="0px" y="0px" viewBox="0 0 531.45 116.24" style="enable-background:new 0 0 531.45 116.24;" xml:space="preserve"> <style type="text/css"> .st0{fill:#F7F9F3;} .st1{fill:#98B393;} .st2{fill:#35374B;} </style> <g> <g> <g> <g> <path class="st2" d="M130.46,59.6c0-23.89,14.63-39.99,35.99-39.99c8.21,0,16.73,1.79,23.79,4.84l-3.89,24.73h-0.84 c-1.05-16.31-8.42-24.31-22.1-24.31c-13.37,0-21.89,10.1-21.89,26c0,20.73,12.1,35.05,29.26,35.05c10.84,0,17.05-4.53,19.58-14 l0.84,0.32c-3.26,16.63-12.63,25.26-27.78,25.26C143.62,97.49,130.46,82.44,130.46,59.6z"></path> <path class="st2" d="M245.49,85.17c-1.68,7.47-6.42,11.79-13.16,11.79c-5.89,0-9.26-3.58-9.68-9.16l-0.21-1.26 c-1.26,5.05-6.63,10.42-14.95,10.42c-9.26,0-14.21-5.89-14.21-12.84c0-9.26,7.16-15.05,19.05-17.47l10-2v-2.53 c0-9.16-3.37-14.52-12.31-14.52c-7.16,0-12.31,3.79-14.31,12.1l-0.74-0.21c1.47-11.68,9.16-18.94,20.84-18.94 c12.94,0,18.94,8.1,18.94,21.15v23.05c0,3.79,1.58,5.89,4.1,5.89c2.21,0,4.53-1.47,5.68-5.58L245.49,85.17z M222.34,84.86v-18.1 l-6,1.26c-9.89,1.89-11.16,7.68-11.16,12.42c0,5.47,2.74,10.31,8.53,10.31C217.81,90.75,220.66,89.07,222.34,84.86z"></path> <path class="st2" d="M279.49,40.55v12.42h-0.53c-0.95-0.53-2.63-0.84-4.84-0.84c-6.95,0-11.47,4.11-11.47,18.31v17.89 c0,4.42,2.11,5.79,8.95,6.31v0.74h-28.31v-0.74c4.84-0.74,6.95-2.11,6.95-6.31V54.55c0-6.21-1.58-7.79-6.95-7.68v-0.74 l18.84-5.26v21.89h0.42c0.95-15.37,6.95-22.21,16.1-22.21H279.49z"></path> <path class="st2" d="M324.98,76.65c-2.53,14.42-11.16,20.31-20.73,20.31c-12.53,0-22.94-9.37-22.94-27.26 c0-16.94,8.84-29.15,23.47-29.15c11.05,0,20.1,7.68,19.68,23.15h-33.68c0.74,14.63,8,22.94,18.84,22.94 c5.89,0,11.47-1.68,14.52-10.21L324.98,76.65z M290.77,61.49h21.79c0.21-13.26-4.21-18.42-10.21-18.42 C295.3,43.07,290.77,50.23,290.77,61.49z"></path> <path class="st2" d="M389.89,32.34v52.41c0,6.74,1.89,9.05,7.58,9.89v0.74h-29.05v-0.74c5.68-0.84,7.58-3.16,7.58-9.89V59.49 h-30.63v25.26c0,6.74,1.89,9.05,7.58,9.89v0.74H323.9v-0.74c5.68-0.84,7.58-3.16,7.58-9.89V32.34c0-6.74-1.89-9.05-7.58-9.89 v-0.74h29.05v0.74c-5.68,0.84-7.58,3.16-7.58,9.89v24.42H376V32.34c0-6.74-1.89-9.05-7.58-9.89v-0.74h29.05v0.74 C391.79,23.29,389.89,25.6,389.89,32.34z"></path> <path class="st2" d="M424.2,94.65v0.74h-26.21v-0.74c4.84-0.74,6.95-2.11,6.95-6.31v-34.1c0-6-1.58-7.16-6.95-7.16v-0.63 l19.37-5.26v47.15C417.36,92.54,419.36,93.91,424.2,94.65z M403.04,28.02c0-4.32,3.16-7.47,7.47-7.47 c4.21,0,7.47,3.26,7.47,7.47c0,4.11-3.26,7.37-7.47,7.37C406.2,35.39,403.04,32.13,403.04,28.02z"></path> <path class="st2" d="M429.14,52.13c-2.53-6-4.63-8.52-8-9.26v-0.74h26.84v0.74c-4.42,0.42-6.42,1.89-6.42,4.84 c0,1.26,0.42,2.95,1.26,4.84l11.16,26.31l11.05-25.89c0.74-1.79,1.37-3.47,1.37-5.26c0-2.63-1.68-4.42-6.42-4.84v-0.74h16.21 v0.74c-3.89,1.05-5.37,3.05-8,9.16l-19.26,44.41h-0.63L429.14,52.13z"></path> <path class="st2" d="M515.13,76.65c-2.53,14.42-11.16,20.31-20.73,20.31c-12.52,0-22.94-9.37-22.94-27.26 c0-16.94,8.84-29.15,23.47-29.15c11.05,0,20.1,7.68,19.68,23.15h-33.68c0.74,14.63,8,22.94,18.84,22.94 c5.89,0,11.47-1.68,14.52-10.21L515.13,76.65z M480.93,61.49h21.79c0.21-13.26-4.21-18.42-10.21-18.42 C485.45,43.07,480.93,50.23,480.93,61.49z"></path> </g> </g> </g> <path class="st1" d="M102.17,45.79V33.9c0-2.99-1.61-5.78-4.2-7.27l-10.29-5.94c-2.59-1.49-5.81-1.49-8.4,0l-9.5,5.48V15.2 c0-2.99-1.61-5.78-4.2-7.27L55.28,1.98c-2.59-1.5-5.81-1.49-8.4,0L36.59,7.92c-2.59,1.5-4.2,4.28-4.2,7.27v10.97l-9.5-5.48 c-2.59-1.49-5.81-1.49-8.4,0L4.2,26.63C1.61,28.12,0,30.91,0,33.9v11.89c0,2.99,1.61,5.78,4.2,7.27l9.5,5.49l-9.5,5.49 C1.61,65.53,0,68.31,0,71.3v11.89c0,2.99,1.61,5.78,4.2,7.28l10.3,5.94c1.29,0.75,2.75,1.12,4.2,1.12s2.9-0.37,4.2-1.12l9.5-5.48 v10.97c0,2.99,1.61,5.78,4.2,7.28l10.29,5.94c1.3,0.75,2.75,1.12,4.2,1.12s2.9-0.37,4.2-1.12l10.3-5.94c2.59-1.5,4.2-4.28,4.2-7.27 V90.93l9.5,5.48c1.3,0.75,2.75,1.12,4.2,1.12c1.45,0,2.9-0.37,4.2-1.12l10.3-5.94c2.59-1.5,4.2-4.28,4.2-7.27V71.3 c0-2.99-1.61-5.78-4.2-7.27l-9.5-5.49l9.5-5.49C100.56,51.57,102.17,48.78,102.17,45.79z M97.18,45.79c0,1.21-0.65,2.34-1.7,2.95 l-10.29,5.94c-1.05,0.6-2.35,0.61-3.4,0l-10.29-5.94c-1.05-0.61-1.7-1.74-1.7-2.95v-5.2l-5,2.88v2.31c0,2.99,1.61,5.78,4.2,7.27 l26.49,15.3c1.05,0.61,1.7,1.74,1.7,2.95v11.89c0,1.21-0.65,2.34-1.7,2.95l-10.29,5.94c-1.05,0.61-2.35,0.61-3.4,0l-10.29-5.94 c-1.05-0.61-1.7-1.74-1.7-2.95V71.3c0-1.21,0.65-2.34,1.7-2.95l4.5-2.6l-5-2.88l-2.01,1.16c-2.59,1.5-4.2,4.28-4.2,7.27v30.59 c0,1.21-0.65,2.34-1.7,2.95l-10.29,5.94l0,0c-1.05,0.61-2.35,0.6-3.4,0l-10.29-5.94c-1.05-0.61-1.7-1.74-1.7-2.95V90.01 c0-1.21,0.65-2.34,1.7-2.95l10.29-5.94c0.53-0.3,1.11-0.45,1.7-0.45c0.59,0,1.18,0.15,1.7,0.45l4.5,2.6v-5.77l-2-1.16 c-2.59-1.5-5.81-1.49-8.4,0L20.4,92.08c-1.05,0.61-2.35,0.61-3.4,0L6.7,86.14C5.65,85.53,5,84.4,5,83.19V71.3 c0-1.21,0.65-2.34,1.7-2.95l10.29-5.94c0.53-0.3,1.11-0.45,1.7-0.45s1.18,0.15,1.7,0.45l10.3,5.94c1.05,0.6,1.7,1.73,1.7,2.95v5.2 l5-2.88V71.3c0-2.99-1.61-5.78-4.2-7.27L6.7,48.73C5.65,48.13,5,47,5,45.79V33.9c0-1.21,0.65-2.34,1.7-2.95l10.29-5.94 c0.53-0.3,1.11-0.45,1.7-0.45s1.18,0.15,1.7,0.45l10.3,5.94c1.05,0.6,1.7,1.73,1.7,2.95v11.89c0,1.21-0.65,2.34-1.7,2.95l-4.5,2.6 l5,2.88l2.01-1.16c2.59-1.49,4.2-4.28,4.2-7.27V15.2c0-1.21,0.65-2.34,1.7-2.95l10.29-5.94c0.53-0.3,1.11-0.45,1.7-0.45 c0.59,0,1.18,0.15,1.7,0.45l10.3,5.94c1.05,0.6,1.7,1.73,1.7,2.95v11.89c0,1.21-0.65,2.34-1.7,2.95l-10.29,5.94 c-1.05,0.6-2.35,0.61-3.4,0l-4.5-2.6v5.77l2.01,1.16c1.3,0.75,2.75,1.12,4.2,1.12c1.45,0,2.9-0.37,4.2-1.12l26.49-15.29 c0.53-0.3,1.11-0.45,1.7-0.45c0.59,0,1.18,0.15,1.7,0.45l10.29,5.94c1.05,0.61,1.7,1.74,1.7,2.95V45.79z"></path> </g> <g> <path class="st2" d="M519.18,26.44v-6.49h-2.49v-1.21h6.27v1.21h-2.49v6.49H519.18z"></path> <path class="st2" d="M523.81,26.44v-7.69h1.16l2.66,5.45l2.66-5.45h1.16v7.69h-1.2v-4.93l-2.36,4.93h-0.51l-2.36-4.93v4.93H523.81z "></path> </g> </svg> 