<svg width="145" height="24" viewBox="0 0 145 24" fill="none" xmlns="http://www.w3.org/2000/svg">
<g clip-path="url(#clip0_1147_9745)">
<path d="M4.45109 10.3818C4.49614 11.7426 4.59724 13.0948 4.92857 14.419C4.94408 14.4816 4.93407 14.5236 4.89253 14.5722C4.12827 15.4833 3.4596 16.5742 3.40505 17.7928C3.59524 22.4382 14.9254 19.4888 15.6136 12.8023C16.4344 13.1237 17.6513 13.8262 18.5832 14.5061C18.6408 14.5477 18.6333 14.5897 18.6238 14.6443C17.9206 18.2994 15.2103 20.669 11.9576 22.1969C1.6573 26.8769 -4.79115 17.547 4.45109 10.3818Z" fill="#23213A"/>
<path d="M13.9902 22.5235C15.0027 21.8326 15.9431 21.0791 16.8546 20.2646C16.9346 20.1935 17.0047 20.1705 17.1138 20.194C18.4712 20.4729 19.6629 20.1229 20.5212 19.5862C22.0427 18.6355 21.4912 16.672 20.6904 15.452C18.814 12.2944 13.7585 10.2839 9.80551 11.2766C9.61732 10.0295 9.63584 8.92011 10.0107 7.84474C15.1298 6.95009 23.6749 10.4956 24.6158 17.0185C25.3796 23.3756 18.4637 24.6867 13.9902 22.5235Z" fill="#23213A"/>
<path d="M11.5806 17.3763C10.6442 17.9921 9.67921 18.4757 8.64318 18.8842C5.81785 16.703 5.29083 12.8941 5.44648 9.46722C6.41045 -1.85924 17.6442 -2.79594 19.2072 8.67471C18.1377 8.03589 17.0196 7.52524 15.7943 7.2629C15.7097 7.24388 15.6662 7.20833 15.6392 7.12323C15.2178 5.85461 14.481 4.77373 13.3924 4.02527C11.2738 2.56891 9.47451 5.78151 8.98302 7.60284C7.9675 10.8245 8.75779 15.3567 11.5806 17.3763Z" fill="#23213A"/>
</g>
<path d="M45.3497 19.6118C45.0207 19.6118 44.7423 19.3687 44.6979 19.0427L43.7309 11.9357C43.6837 11.5883 43.1982 11.5461 43.0917 11.8801L40.7732 19.1538C40.6863 19.4266 40.4328 19.6118 40.1465 19.6118H38.2769C37.9916 19.6118 37.7388 19.4278 37.6511 19.1564L35.3382 12.0032C35.2304 11.6699 34.7455 11.7137 34.6993 12.061L33.7697 19.0409C33.7262 19.3677 33.4474 19.6118 33.1177 19.6118H31.3199C30.9263 19.6118 30.6207 19.2683 30.6667 18.8773L32.3845 4.25906C32.4234 3.92777 32.7041 3.67807 33.0377 3.67807H35.073C35.3548 3.67807 35.6052 3.85751 35.6958 4.12428L38.9331 13.6553C39.0342 13.9531 39.4555 13.9527 39.5561 13.6548L42.7738 4.1254C42.864 3.85805 43.1148 3.67807 43.3969 3.67807H45.4104C45.7436 3.67807 46.0242 3.92727 46.0635 4.25818L47.8013 18.8764C47.8478 19.2677 47.5422 19.6118 47.1481 19.6118H45.3497Z" fill="#23213A"/>
<path d="M54.4952 4.13706C54.5818 3.86377 54.8355 3.67807 55.1222 3.67807H58.2305C58.5172 3.67807 58.7708 3.86377 58.8575 4.13706L63.4914 18.7553C63.6259 19.1793 63.3093 19.6118 62.8644 19.6118H60.8964C60.6074 19.6118 60.3523 19.4231 60.2676 19.1468L59.4582 16.5068C59.4158 16.3686 59.2882 16.2743 59.1437 16.2743H54.1452C53.9999 16.2743 53.8719 16.3696 53.8302 16.5087L53.0396 19.1431C52.9562 19.4213 52.7001 19.6118 52.4096 19.6118H50.4882C50.0434 19.6118 49.7268 19.1793 49.8612 18.7553L54.4952 4.13706ZM58.19 13.4105C58.4081 13.4105 58.5658 13.202 58.5064 12.9921L56.9601 7.53035C56.8698 7.2113 56.4176 7.2113 56.3272 7.53035L54.7809 12.9921C54.7215 13.202 54.8792 13.4105 55.0974 13.4105H58.19Z" fill="#23213A"/>
<path d="M66.003 4.33582C66.003 3.97256 66.2975 3.67807 66.6607 3.67807H68.2472C68.4641 3.67807 68.6671 3.78506 68.7897 3.96403L74.7428 12.652C74.9255 12.9187 75.343 12.7894 75.343 12.4661V4.33582C75.343 3.97255 75.6374 3.67807 76.0007 3.67807H77.9074C78.2706 3.67807 78.5651 3.97255 78.5651 4.33582V18.954C78.5651 19.3173 78.2706 19.6118 77.9074 19.6118H76.3216C76.1043 19.6118 75.901 19.5044 75.7785 19.325L69.8474 10.6411C69.665 10.3739 69.2469 10.503 69.2469 10.8265V18.954C69.2469 19.3173 68.9525 19.6118 68.5892 19.6118H66.6607C66.2975 19.6118 66.003 19.3173 66.003 18.954V4.33582Z" fill="#23213A"/>
<path d="M81.6594 4.33582C81.6594 3.97256 81.9539 3.67807 82.3172 3.67807H84.2239C84.5871 3.67807 84.8816 3.97255 84.8816 4.33582V18.954C84.8816 19.3173 84.5871 19.6118 84.2239 19.6118H82.3172C81.9539 19.6118 81.6594 19.3173 81.6594 18.954V4.33582Z" fill="#23213A"/>
<path d="M87.9945 7.31698C87.9945 6.02506 88.3501 5.09918 89.0613 4.53935C89.787 3.96516 90.6579 3.67807 91.6739 3.67807C94.2025 3.67807 96.3637 3.67807 97.983 3.67807C98.3463 3.67807 98.6407 3.97255 98.6407 4.33582V5.9702C98.6407 6.33347 98.3462 6.62796 97.983 6.62796H92.5665C92.1311 6.62796 91.7972 6.74997 91.565 6.994C91.3328 7.22368 91.2167 7.52512 91.2167 7.89835V10.6329L96.9423 10.6708C97.3039 10.6731 97.5957 10.9669 97.5957 11.3285V12.8303C97.5957 13.1932 97.3018 13.4875 96.9389 13.488L91.2167 13.4967V18.954C91.2167 19.3173 90.9222 19.6118 90.5589 19.6118H88.6523C88.289 19.6118 87.9945 19.3173 87.9945 18.954V7.31698Z" fill="#23213A"/>
<path d="M107.291 19.741C105.709 19.741 104.446 19.5328 103.503 19.1165C102.559 18.7003 101.848 17.9107 101.369 16.748C100.89 15.5853 100.651 13.8914 100.651 11.6665C100.651 9.44148 100.89 7.74762 101.369 6.58489C101.863 5.40781 102.581 4.60395 103.525 4.17331C104.468 3.74266 105.724 3.52734 107.291 3.52734C108.873 3.52734 110.129 3.74266 111.058 4.17331C112.001 4.60395 112.712 5.40781 113.191 6.58489C113.67 7.74762 113.91 9.44148 113.91 11.6665C113.91 13.8914 113.67 15.5853 113.191 16.748C112.712 17.9107 112.001 18.7003 111.058 19.1165C110.129 19.5328 108.873 19.741 107.291 19.741ZM107.291 16.8772C108.206 16.8772 108.895 16.748 109.359 16.4896C109.838 16.2169 110.179 15.7145 110.383 14.9824C110.586 14.2359 110.687 13.1306 110.687 11.6665C110.687 10.1449 110.586 9.01801 110.383 8.28592C110.179 7.53948 109.838 7.03707 109.359 6.77868C108.895 6.5203 108.206 6.3911 107.291 6.3911C106.391 6.3911 105.702 6.5203 105.223 6.77868C104.758 7.03707 104.417 7.53948 104.2 8.28592C103.982 9.03237 103.873 10.1592 103.873 11.6665C103.873 13.145 103.975 14.2503 104.178 14.9824C104.381 15.7145 104.715 16.2169 105.179 16.4896C105.658 16.748 106.362 16.8772 107.291 16.8772Z" fill="#23213A"/>
<path d="M120.475 19.6118C119.183 19.6118 118.225 19.3175 117.601 18.729C116.977 18.1404 116.665 17.1787 116.665 15.8437V4.33582C116.665 3.97255 116.959 3.67807 117.322 3.67807H119.229C119.592 3.67807 119.887 3.97255 119.887 4.33582V15.3269C119.887 16.26 120.366 16.7265 121.324 16.7265H125.76C126.124 16.7265 126.418 17.021 126.418 17.3842V18.954C126.418 19.3173 126.124 19.6118 125.76 19.6118H120.475Z" fill="#23213A"/>
<path d="M128.693 4.33582C128.693 3.97256 128.987 3.67807 129.351 3.67807H135.507C137.568 3.67807 139.02 4.36709 139.862 5.74514C140.703 7.12319 141.124 9.08979 141.124 11.6449C141.124 14.3292 140.66 16.3317 139.731 17.6524C138.802 18.9586 137.394 19.6118 135.507 19.6118H129.351C128.987 19.6118 128.693 19.3173 128.693 18.954V4.33582ZM135.181 16.748C136.153 16.748 136.85 16.3317 137.271 15.4992C137.692 14.6522 137.902 13.3675 137.902 11.6449C137.902 10.2956 137.8 9.25487 137.597 8.52278C137.409 7.77633 137.118 7.25956 136.726 6.97247C136.335 6.68538 135.819 6.54183 135.181 6.54183H132.244C132.062 6.54183 131.915 6.68907 131.915 6.8707V16.4191C131.915 16.6008 132.062 16.748 132.244 16.748H135.181Z" fill="#23213A"/>
<path d="M143.058 3.9343H142.723V3.71484H143.638V3.9343H143.302V4.93585H143.058V3.9343Z" fill="#23213A"/>
<path d="M144.763 4.93585L144.669 4.13725L144.456 4.93585H144.227L144.014 4.14715L143.923 4.93585H143.687L143.829 3.71484H144.064L144.344 4.6504L144.623 3.71484H144.856L144.999 4.93585H144.763Z" fill="#23213A"/>
<defs>
<clipPath id="clip0_1147_9745">
<rect width="24.6742" height="22.9808" fill="white" transform="translate(0 0.509766)"/>
</clipPath>
</defs>
</svg>
